<mxfile host="app.diagrams.net" agent="Mozilla/5.0 (Windows NT 10.0; Win64; x64) AppleWebKit/537.36 (KHTML, like Gecko) Chrome/131.0.0.0 Safari/537.36" version="25.0.1">
  <diagram name="Page-1" id="LrknNcl21yne5Ivoslqu">
    <mxGraphModel dx="880" dy="529" grid="1" gridSize="10" guides="1" tooltips="1" connect="1" arrows="1" fold="1" page="1" pageScale="1" pageWidth="850" pageHeight="1100" math="0" shadow="0">
      <root>
        <mxCell id="0" />
        <mxCell id="1" parent="0" />
        <mxCell id="7wQOC13-uPtbGCT3zaKo-13" value="" style="shape=umlLifeline;perimeter=lifelinePerimeter;whiteSpace=wrap;html=1;container=1;dropTarget=0;collapsible=0;recursiveResize=0;outlineConnect=0;portConstraint=eastwest;newEdgeStyle={&quot;curved&quot;:0,&quot;rounded&quot;:0};participant=umlActor;size=60;" parent="1" vertex="1">
          <mxGeometry x="40" y="60" width="40" height="1400" as="geometry" />
        </mxCell>
        <mxCell id="7wQOC13-uPtbGCT3zaKo-18" value="InstaPay" style="shape=rect;html=1;whiteSpace=wrap;align=center;" parent="1" vertex="1">
          <mxGeometry x="200" y="60" width="130" height="60" as="geometry" />
        </mxCell>
        <mxCell id="7wQOC13-uPtbGCT3zaKo-19" value="" style="edgeStyle=none;html=1;dashed=1;endArrow=none;align=center;verticalAlign=bottom;exitX=0.5;exitY=1;rounded=0;" parent="1" source="7wQOC13-uPtbGCT3zaKo-54" edge="1">
          <mxGeometry x="1" relative="1" as="geometry">
            <mxPoint x="265" y="1440" as="targetPoint" />
          </mxGeometry>
        </mxCell>
        <mxCell id="7wQOC13-uPtbGCT3zaKo-21" value="Bank" style="shape=rect;html=1;whiteSpace=wrap;align=center;" parent="1" vertex="1">
          <mxGeometry x="480" y="60" width="130" height="60" as="geometry" />
        </mxCell>
        <mxCell id="7wQOC13-uPtbGCT3zaKo-22" value="" style="edgeStyle=none;html=1;dashed=1;endArrow=none;align=center;verticalAlign=bottom;exitX=0.5;exitY=1;rounded=0;" parent="1" source="7wQOC13-uPtbGCT3zaKo-21" edge="1">
          <mxGeometry x="1" relative="1" as="geometry">
            <mxPoint x="560" y="1440" as="targetPoint" />
          </mxGeometry>
        </mxCell>
        <mxCell id="7wQOC13-uPtbGCT3zaKo-23" value="Vodafone" style="shape=rect;html=1;whiteSpace=wrap;align=center;" parent="1" vertex="1">
          <mxGeometry x="720" y="60" width="130" height="60" as="geometry" />
        </mxCell>
        <mxCell id="7wQOC13-uPtbGCT3zaKo-24" value="" style="edgeStyle=none;html=1;dashed=1;endArrow=none;align=center;verticalAlign=bottom;exitX=0.5;exitY=1;rounded=0;" parent="1" source="7wQOC13-uPtbGCT3zaKo-23" edge="1">
          <mxGeometry x="1" relative="1" as="geometry">
            <mxPoint x="790" y="1440" as="targetPoint" />
          </mxGeometry>
        </mxCell>
        <mxCell id="7wQOC13-uPtbGCT3zaKo-25" value="User" style="text;html=1;align=center;verticalAlign=middle;resizable=0;points=[];autosize=1;strokeColor=none;fillColor=none;" parent="1" vertex="1">
          <mxGeometry x="35" y="38" width="50" height="30" as="geometry" />
        </mxCell>
        <mxCell id="7wQOC13-uPtbGCT3zaKo-26" value="user login" style="html=1;verticalAlign=bottom;endArrow=block;curved=0;rounded=0;fontSize=13;" parent="1" source="7wQOC13-uPtbGCT3zaKo-13" edge="1">
          <mxGeometry width="80" relative="1" as="geometry">
            <mxPoint x="110" y="160" as="sourcePoint" />
            <mxPoint x="260" y="160" as="targetPoint" />
          </mxGeometry>
        </mxCell>
        <mxCell id="7wQOC13-uPtbGCT3zaKo-30" value="alternative" style="shape=umlFrame;whiteSpace=wrap;html=1;pointerEvents=0;fillColor=#ffe6cc;strokeColor=#d79b00;strokeWidth=2;" parent="1" vertex="1">
          <mxGeometry x="35.46" y="250" width="244.54" height="200" as="geometry" />
        </mxCell>
        <mxCell id="7wQOC13-uPtbGCT3zaKo-31" value="[ info is valid ]" style="text;html=1;align=center;verticalAlign=middle;resizable=0;points=[];autosize=1;strokeColor=none;fillColor=none;fontSize=14;" parent="1" vertex="1">
          <mxGeometry x="60.459999999999994" y="278" width="110" height="30" as="geometry" />
        </mxCell>
        <mxCell id="7wQOC13-uPtbGCT3zaKo-34" value="" style="endArrow=none;html=1;rounded=0;exitX=-0.001;exitY=0.501;exitDx=0;exitDy=0;exitPerimeter=0;entryX=1;entryY=0.5;entryDx=0;entryDy=0;entryPerimeter=0;" parent="1" source="7wQOC13-uPtbGCT3zaKo-30" target="7wQOC13-uPtbGCT3zaKo-30" edge="1">
          <mxGeometry width="50" height="50" relative="1" as="geometry">
            <mxPoint x="480.46000000000004" y="290" as="sourcePoint" />
            <mxPoint x="530.46" y="240" as="targetPoint" />
          </mxGeometry>
        </mxCell>
        <mxCell id="7wQOC13-uPtbGCT3zaKo-35" value="operation requested" style="html=1;verticalAlign=bottom;endArrow=block;curved=0;rounded=0;fontSize=13;" parent="1" edge="1">
          <mxGeometry width="80" relative="1" as="geometry">
            <mxPoint x="260.46000000000004" y="324" as="sourcePoint" />
            <mxPoint x="59.78352941176463" y="324" as="targetPoint" />
          </mxGeometry>
        </mxCell>
        <mxCell id="7wQOC13-uPtbGCT3zaKo-37" value="info reject" style="html=1;verticalAlign=bottom;endArrow=block;curved=0;rounded=0;fontSize=13;" parent="1" edge="1">
          <mxGeometry width="80" relative="1" as="geometry">
            <mxPoint x="261.46000000000004" y="420" as="sourcePoint" />
            <mxPoint x="60.459999999999994" y="420" as="targetPoint" />
          </mxGeometry>
        </mxCell>
        <mxCell id="7wQOC13-uPtbGCT3zaKo-38" value="balance check" style="html=1;verticalAlign=bottom;endArrow=open;dashed=1;endSize=8;curved=0;rounded=0;fontSize=13;" parent="1" target="7wQOC13-uPtbGCT3zaKo-54" edge="1">
          <mxGeometry x="-0.0034" relative="1" as="geometry">
            <mxPoint x="59.32352941176464" y="470" as="sourcePoint" />
            <mxPoint x="270.00000000000006" y="470" as="targetPoint" />
            <mxPoint as="offset" />
          </mxGeometry>
        </mxCell>
        <mxCell id="7wQOC13-uPtbGCT3zaKo-41" value="" style="endArrow=classic;html=1;rounded=0;" parent="1" target="7wQOC13-uPtbGCT3zaKo-54" edge="1">
          <mxGeometry width="50" height="50" relative="1" as="geometry">
            <mxPoint x="260" y="190" as="sourcePoint" />
            <mxPoint x="260" y="230" as="targetPoint" />
            <Array as="points">
              <mxPoint x="350" y="190" />
              <mxPoint x="350" y="230" />
            </Array>
          </mxGeometry>
        </mxCell>
        <mxCell id="7wQOC13-uPtbGCT3zaKo-45" value="[ else ]" style="text;html=1;align=center;verticalAlign=middle;resizable=0;points=[];autosize=1;strokeColor=none;fillColor=none;fontSize=14;" parent="1" vertex="1">
          <mxGeometry x="60.46" y="350" width="60" height="30" as="geometry" />
        </mxCell>
        <mxCell id="7wQOC13-uPtbGCT3zaKo-46" value="alternative" style="shape=umlFrame;whiteSpace=wrap;html=1;pointerEvents=0;fillColor=#fff2cc;strokeColor=#d6b656;strokeWidth=4;" parent="1" vertex="1">
          <mxGeometry x="40" y="570" width="785" height="850" as="geometry" />
        </mxCell>
        <mxCell id="7wQOC13-uPtbGCT3zaKo-47" value="[ user chooses Bank ]" style="text;html=1;align=center;verticalAlign=middle;resizable=0;points=[];autosize=1;strokeColor=none;fillColor=none;fontSize=14;" parent="1" vertex="1">
          <mxGeometry x="50.00000000000001" y="600" width="160" height="30" as="geometry" />
        </mxCell>
        <mxCell id="7wQOC13-uPtbGCT3zaKo-49" value="" style="endArrow=none;html=1;rounded=0;" parent="1" source="7wQOC13-uPtbGCT3zaKo-13" edge="1">
          <mxGeometry width="50" height="50" relative="1" as="geometry">
            <mxPoint x="69.99999999999989" y="1000" as="sourcePoint" />
            <mxPoint x="790" y="1000" as="targetPoint" />
          </mxGeometry>
        </mxCell>
        <mxCell id="7wQOC13-uPtbGCT3zaKo-55" value="" style="edgeStyle=none;html=1;dashed=1;endArrow=none;align=center;verticalAlign=bottom;exitX=0.5;exitY=1;rounded=0;" parent="1" source="7wQOC13-uPtbGCT3zaKo-18" target="7wQOC13-uPtbGCT3zaKo-54" edge="1">
          <mxGeometry x="1" relative="1" as="geometry">
            <mxPoint x="265" y="790" as="targetPoint" />
            <mxPoint x="265" y="120" as="sourcePoint" />
          </mxGeometry>
        </mxCell>
        <mxCell id="7wQOC13-uPtbGCT3zaKo-54" value="" style="html=1;points=[[0,0,0,0,5],[0,1,0,0,-5],[1,0,0,0,5],[1,1,0,0,-5]];perimeter=orthogonalPerimeter;outlineConnect=0;targetShapes=umlLifeline;portConstraint=eastwest;newEdgeStyle={&quot;curved&quot;:0,&quot;rounded&quot;:0};" parent="1" vertex="1">
          <mxGeometry x="260" y="140" width="10" height="1290" as="geometry" />
        </mxCell>
        <mxCell id="7wQOC13-uPtbGCT3zaKo-58" value="app asks user to choose between&lt;div&gt;Bank or Vodafone&lt;/div&gt;" style="html=1;verticalAlign=bottom;endArrow=block;curved=0;rounded=0;fontSize=13;" parent="1" edge="1">
          <mxGeometry width="80" relative="1" as="geometry">
            <mxPoint x="260" y="530" as="sourcePoint" />
            <mxPoint x="60.46352941176464" y="530" as="targetPoint" />
          </mxGeometry>
        </mxCell>
        <mxCell id="7wQOC13-uPtbGCT3zaKo-59" value="loop" style="shape=umlFrame;whiteSpace=wrap;html=1;pointerEvents=0;fillColor=#d5e8d4;strokeColor=#82b366;strokeWidth=3;" parent="1" vertex="1">
          <mxGeometry x="50" y="800" width="520" height="170" as="geometry" />
        </mxCell>
        <mxCell id="7wQOC13-uPtbGCT3zaKo-60" value="[ info is valid ]" style="text;html=1;align=center;verticalAlign=middle;resizable=0;points=[];autosize=1;strokeColor=none;fillColor=none;fontSize=14;" parent="1" vertex="1">
          <mxGeometry x="95" y="820" width="110" height="30" as="geometry" />
        </mxCell>
        <mxCell id="7wQOC13-uPtbGCT3zaKo-62" value="account balance check" style="html=1;verticalAlign=bottom;endArrow=open;dashed=1;endSize=8;curved=0;rounded=0;fontSize=13;" parent="1" target="7wQOC13-uPtbGCT3zaKo-85" edge="1">
          <mxGeometry x="0.0917" relative="1" as="geometry">
            <mxPoint x="270" y="640" as="sourcePoint" />
            <mxPoint x="550" y="640" as="targetPoint" />
            <mxPoint as="offset" />
          </mxGeometry>
        </mxCell>
        <mxCell id="7wQOC13-uPtbGCT3zaKo-63" value="&lt;span style=&quot;font-size: 13px;&quot;&gt;account info request&lt;/span&gt;" style="html=1;verticalAlign=bottom;endArrow=block;curved=0;rounded=0;" parent="1" edge="1">
          <mxGeometry x="-0.2256" width="80" relative="1" as="geometry">
            <mxPoint x="550" y="680" as="sourcePoint" />
            <mxPoint x="270" y="680" as="targetPoint" />
            <mxPoint x="-1" as="offset" />
          </mxGeometry>
        </mxCell>
        <mxCell id="7wQOC13-uPtbGCT3zaKo-64" value="&lt;span style=&quot;font-size: 13px;&quot;&gt;account info insert&lt;/span&gt;" style="html=1;verticalAlign=bottom;endArrow=open;dashed=1;endSize=8;curved=0;rounded=0;" parent="1" target="7wQOC13-uPtbGCT3zaKo-54" edge="1">
          <mxGeometry x="0.1848" relative="1" as="geometry">
            <mxPoint x="60.46" y="730" as="sourcePoint" />
            <mxPoint x="270" y="730" as="targetPoint" />
            <mxPoint as="offset" />
          </mxGeometry>
        </mxCell>
        <mxCell id="7wQOC13-uPtbGCT3zaKo-66" value="&lt;span&gt;app asks user to enter&amp;nbsp;&lt;/span&gt;&lt;div&gt;&lt;span&gt;account info&lt;/span&gt;&lt;/div&gt;" style="html=1;verticalAlign=bottom;endArrow=block;curved=0;rounded=0;fontSize=13;" parent="1" target="7wQOC13-uPtbGCT3zaKo-13" edge="1">
          <mxGeometry x="-0.1456" width="80" relative="1" as="geometry">
            <mxPoint x="260" y="700" as="sourcePoint" />
            <mxPoint x="-10" y="700" as="targetPoint" />
            <mxPoint x="1" as="offset" />
          </mxGeometry>
        </mxCell>
        <mxCell id="7wQOC13-uPtbGCT3zaKo-68" value="info verify" style="html=1;verticalAlign=bottom;endArrow=block;curved=0;rounded=0;fontSize=13;" parent="1" target="7wQOC13-uPtbGCT3zaKo-85" edge="1">
          <mxGeometry width="80" relative="1" as="geometry">
            <mxPoint x="270" y="760" as="sourcePoint" />
            <mxPoint x="550" y="760" as="targetPoint" />
          </mxGeometry>
        </mxCell>
        <mxCell id="7wQOC13-uPtbGCT3zaKo-69" value="&lt;span&gt;info is valid&lt;/span&gt;" style="html=1;verticalAlign=bottom;endArrow=open;dashed=1;endSize=8;curved=0;rounded=0;fontSize=13;" parent="1" edge="1">
          <mxGeometry x="0.1848" relative="1" as="geometry">
            <mxPoint x="550" y="860" as="sourcePoint" />
            <mxPoint x="270" y="860" as="targetPoint" />
            <mxPoint as="offset" />
          </mxGeometry>
        </mxCell>
        <mxCell id="7wQOC13-uPtbGCT3zaKo-70" value="account balance displayed" style="html=1;verticalAlign=bottom;endArrow=open;dashed=1;endSize=8;curved=0;rounded=0;fontSize=13;" parent="1" target="7wQOC13-uPtbGCT3zaKo-13" edge="1">
          <mxGeometry x="-0.0034" relative="1" as="geometry">
            <mxPoint x="260" y="930" as="sourcePoint" />
            <mxPoint x="70" y="930" as="targetPoint" />
            <mxPoint as="offset" />
          </mxGeometry>
        </mxCell>
        <mxCell id="7wQOC13-uPtbGCT3zaKo-71" value="&lt;span style=&quot;font-size: 13px; background-color: rgb(255, 255, 255);&quot;&gt;info verify&lt;/span&gt;" style="text;html=1;align=center;verticalAlign=middle;resizable=0;points=[];autosize=1;strokeColor=none;fillColor=none;" parent="1" vertex="1">
          <mxGeometry x="270" y="160" width="80" height="30" as="geometry" />
        </mxCell>
        <mxCell id="7wQOC13-uPtbGCT3zaKo-72" value="&amp;nbsp; info is valid" style="html=1;verticalAlign=bottom;endArrow=open;dashed=1;endSize=8;curved=0;rounded=0;fontSize=13;" parent="1" edge="1">
          <mxGeometry x="0.0084" relative="1" as="geometry">
            <mxPoint x="270" y="260" as="sourcePoint" />
            <mxPoint x="270" y="300" as="targetPoint" />
            <Array as="points">
              <mxPoint x="320" y="260" />
              <mxPoint x="320" y="300" />
            </Array>
            <mxPoint as="offset" />
          </mxGeometry>
        </mxCell>
        <mxCell id="7wQOC13-uPtbGCT3zaKo-73" value="info is not valid" style="html=1;verticalAlign=bottom;endArrow=open;dashed=1;endSize=8;curved=0;rounded=0;fontSize=13;" parent="1" target="7wQOC13-uPtbGCT3zaKo-54" edge="1">
          <mxGeometry x="0.0667" y="10" relative="1" as="geometry">
            <mxPoint x="270" y="360" as="sourcePoint" />
            <mxPoint x="270" y="400" as="targetPoint" />
            <Array as="points">
              <mxPoint x="320" y="360" />
              <mxPoint x="320" y="400" />
            </Array>
            <mxPoint as="offset" />
          </mxGeometry>
        </mxCell>
        <mxCell id="7wQOC13-uPtbGCT3zaKo-74" value="wallet balance check" style="html=1;verticalAlign=bottom;endArrow=open;dashed=1;endSize=8;curved=0;rounded=0;fontSize=13;entryX=0;entryY=0.156;entryDx=0;entryDy=0;entryPerimeter=0;" parent="1" target="7wQOC13-uPtbGCT3zaKo-87" edge="1">
          <mxGeometry x="0.5" relative="1" as="geometry">
            <mxPoint x="270" y="1060" as="sourcePoint" />
            <mxPoint x="790" y="1060" as="targetPoint" />
            <mxPoint x="-1" as="offset" />
          </mxGeometry>
        </mxCell>
        <mxCell id="7wQOC13-uPtbGCT3zaKo-75" value="&lt;span style=&quot;font-size: 13px;&quot;&gt;wallet info request&lt;/span&gt;" style="html=1;verticalAlign=bottom;endArrow=block;curved=0;rounded=0;" parent="1" edge="1">
          <mxGeometry x="-0.5" width="80" relative="1" as="geometry">
            <mxPoint x="790" y="1100" as="sourcePoint" />
            <mxPoint x="270" y="1100" as="targetPoint" />
            <mxPoint x="1" as="offset" />
          </mxGeometry>
        </mxCell>
        <mxCell id="7wQOC13-uPtbGCT3zaKo-76" value="&lt;span style=&quot;font-size: 13px;&quot;&gt;wallet info insert&lt;/span&gt;" style="html=1;verticalAlign=bottom;endArrow=open;dashed=1;endSize=8;curved=0;rounded=0;" parent="1" edge="1">
          <mxGeometry x="0.1848" relative="1" as="geometry">
            <mxPoint x="60.46000000000001" y="1150" as="sourcePoint" />
            <mxPoint x="260" y="1150" as="targetPoint" />
            <mxPoint as="offset" />
          </mxGeometry>
        </mxCell>
        <mxCell id="7wQOC13-uPtbGCT3zaKo-77" value="&lt;span&gt;app asks user to enter&amp;nbsp;&lt;/span&gt;&lt;div&gt;&lt;span&gt;wallet info&lt;/span&gt;&lt;/div&gt;" style="html=1;verticalAlign=bottom;endArrow=block;curved=0;rounded=0;fontSize=13;" parent="1" edge="1">
          <mxGeometry x="-0.1456" width="80" relative="1" as="geometry">
            <mxPoint x="270" y="1120" as="sourcePoint" />
            <mxPoint x="59" y="1120" as="targetPoint" />
            <mxPoint x="1" as="offset" />
          </mxGeometry>
        </mxCell>
        <mxCell id="7wQOC13-uPtbGCT3zaKo-78" value="info verify" style="html=1;verticalAlign=bottom;endArrow=block;curved=0;rounded=0;fontSize=13;" parent="1" target="7wQOC13-uPtbGCT3zaKo-87" edge="1">
          <mxGeometry x="0.5385" width="80" relative="1" as="geometry">
            <mxPoint x="270" y="1180" as="sourcePoint" />
            <mxPoint x="790" y="1180" as="targetPoint" />
            <mxPoint as="offset" />
          </mxGeometry>
        </mxCell>
        <mxCell id="7wQOC13-uPtbGCT3zaKo-79" value="&lt;span&gt;info is valid&lt;/span&gt;" style="html=1;verticalAlign=bottom;endArrow=open;dashed=1;endSize=8;curved=0;rounded=0;fontSize=13;" parent="1" edge="1">
          <mxGeometry x="-0.5" relative="1" as="geometry">
            <mxPoint x="790" y="1280" as="sourcePoint" />
            <mxPoint x="270" y="1280" as="targetPoint" />
            <mxPoint x="1" as="offset" />
          </mxGeometry>
        </mxCell>
        <mxCell id="7wQOC13-uPtbGCT3zaKo-80" value="wallet balance displayed" style="html=1;verticalAlign=bottom;endArrow=open;dashed=1;endSize=8;curved=0;rounded=0;fontSize=13;" parent="1" edge="1">
          <mxGeometry x="-0.0034" relative="1" as="geometry">
            <mxPoint x="260" y="1350" as="sourcePoint" />
            <mxPoint x="59" y="1350" as="targetPoint" />
            <mxPoint as="offset" />
          </mxGeometry>
        </mxCell>
        <mxCell id="7wQOC13-uPtbGCT3zaKo-81" value="loop" style="shape=umlFrame;whiteSpace=wrap;html=1;pointerEvents=0;fillColor=default;strokeColor=#82b366;gradientColor=none;swimlaneFillColor=none;strokeWidth=3;" parent="1" vertex="1">
          <mxGeometry x="50" y="1220" width="760" height="170" as="geometry" />
        </mxCell>
        <mxCell id="7wQOC13-uPtbGCT3zaKo-82" value="[ info is valid ]" style="text;html=1;align=center;verticalAlign=middle;resizable=0;points=[];autosize=1;strokeColor=none;fillColor=none;fontSize=14;" parent="1" vertex="1">
          <mxGeometry x="95" y="1240" width="110" height="30" as="geometry" />
        </mxCell>
        <mxCell id="7wQOC13-uPtbGCT3zaKo-83" value="[ else ]" style="text;html=1;align=center;verticalAlign=middle;resizable=0;points=[];autosize=1;strokeColor=none;fillColor=none;fontSize=14;" parent="1" vertex="1">
          <mxGeometry x="70.46000000000001" y="1010" width="60" height="30" as="geometry" />
        </mxCell>
        <mxCell id="7wQOC13-uPtbGCT3zaKo-85" value="" style="html=1;points=[[0,0,0,0,5],[0,1,0,0,-5],[1,0,0,0,5],[1,1,0,0,-5]];perimeter=orthogonalPerimeter;outlineConnect=0;targetShapes=umlLifeline;portConstraint=eastwest;newEdgeStyle={&quot;curved&quot;:0,&quot;rounded&quot;:0};" parent="1" vertex="1">
          <mxGeometry x="540" y="610" width="20" height="830" as="geometry" />
        </mxCell>
        <mxCell id="7wQOC13-uPtbGCT3zaKo-87" value="" style="html=1;points=[[0,0,0,0,5],[0,1,0,0,-5],[1,0,0,0,5],[1,1,0,0,-5]];perimeter=orthogonalPerimeter;outlineConnect=0;targetShapes=umlLifeline;portConstraint=eastwest;newEdgeStyle={&quot;curved&quot;:0,&quot;rounded&quot;:0};" parent="1" vertex="1">
          <mxGeometry x="780" y="990" width="20" height="450" as="geometry" />
        </mxCell>
      </root>
    </mxGraphModel>
  </diagram>
</mxfile>
